<svg xmlns="http://www.w3.org/2000/svg" viewBox="0 0 526.96 563.96"><title>Recurso 2</title><g id="Capa_2" data-name="Capa 2"><g id="Capa_1-2" data-name="Capa 1"><path d="M101.6,41.06l53.22,83.72,84.44,132.85,19.34,30.43A12.1,12.1,0,0,0,281,282l3.72-91.32,5.93-145.44L292,12c.26-6.48-5.7-12-12-12-6.72,0-11.73,5.5-12,12l-3.72,91.32-5.93,145.44L257,282l22.36-6.06-53.21-83.72L141.67,59.37,122.32,28.94a12.25,12.25,0,0,0-16.42-4.3c-5.44,3.18-7.79,10.92-4.3,16.42Z"/><path d="M506.47,26.51,482.05,51l-58.66,58.91-71,71.29-61.45,61.71c-10,10-20.48,19.69-30,30.12-.14.16-.3.31-.45.45-8.45,8.5.1,23.21,11.68,20.06l83.18-22.65,132.51-36.09,30.31-8.26c14.89-4,8.57-27.21-6.38-23.14l-83.18,22.65L296.08,262.17l-30.31,8.26,11.68,20.06L301.87,266l58.66-58.91,71-71.29L493,74.06c10-10,20.39-19.76,30-30.12.14-.16.3-.3.45-.45,10.91-11-6.06-27.94-17-17Z"/><path d="M512.45,510.51l-79.76-80.43L306.46,302.77l-29-29.26c-8.88-8.95-22.32.37-20.06,11.68l18.33,91.67,29,144.93,6.68,33.4c1.27,6.36,8.83,10,14.76,8.38,6.63-1.82,9.66-8.38,8.38-14.76L316.2,457.14l-29-144.93-6.68-33.4-20.06,11.68,79.76,80.43L466.46,498.23l29,29.26c10.9,11,27.87-6,17-17Z"/><path d="M18,464.36l86.81-58.1,138.39-92.62L275,292.36c8.61-5.76,7.27-18.74-2.87-21.93l-86.82-27.37L46.93,199.44l-31.78-10C.39,184.78-5.93,207.94,8.77,212.57l86.82,27.37L234,283.56l31.78,10-2.87-21.93-86.81,58.1L37.7,422.36,5.9,443.64c-5.38,3.6-7.71,10.58-4.3,16.42,3.12,5.34,11,7.92,16.42,4.3Z"/><path d="M333.51,212.84,364,259.34V247.23l-36,81.93-5.12,11.67,7.17-5.52-53.34,18.12h6.38l-73.36-29.82-10.64-4.33,8.38,8.39-28.34-71.76-4.08-10.33V252l26.32-74.7,3.74-10.63-11.57,8.81L274,170.5l-6.05-1.64,69.88,48.28c5.33,3.69,13.32,1,16.42-4.3,3.48-6,1-12.73-4.31-16.42l-60.16-41.57c-3.11-2.15-6.16-4.56-9.41-6.5-3.66-2.17-6.82-1.82-10.68-1.58l-41.35,2.54-34.73,2.13A12.54,12.54,0,0,0,182,160.25l-16.69,47.37-10.29,29.21c-1.83,5.21-4.51,10.29-2.78,15.89,2.11,6.87,5.36,13.57,8,20.25l12.79,32.36,9.89,25c1,2.57,1.94,5.6,3.6,7.76,2.33,3,5.83,4.13,9.22,5.51l56.46,22.95,22.58,9.18c6,2.44,11.48-.26,17.22-2.21l31.74-10.78c6.3-2.14,16.7-4,20.08-10.25,2.92-5.39,5-11.43,7.48-17L365,304.32c6.57-15,13.23-29.9,19.71-44.9,2.44-5.64,1.43-10.06-1.65-14.77l-7.21-11-18-27.45-3.6-5.5c-3.55-5.41-10.62-7.69-16.42-4.3C332.44,199.57,329.94,207.39,333.51,212.84Z"/><path d="M273.23,110.5l111.18,42.09,15.81,6-8.38-8.38,24.46,79.5L419.77,241v-6.38l-39.3,142.49-5.58,20.24,5.51-7.17-75.14,34.3-10.81,4.93h12.11L254,404.14,170.29,363.9,151,354.64l5.51,7.17L126.26,245.59l-4.37-16.78v6.38L159,118.47l5.19-16.36-11.57,8.81H276.42c15.44,0,15.47-24,0-24H152.59A12.31,12.31,0,0,0,141,95.73l-31.45,99-7.77,24.48c-1.16,3.65-2.78,7.39-3.27,11.19-.59,4.64,1.56,9.94,2.71,14.38l6.48,24.89,16.9,64.89L131,359.13c1.2,4.6,2,10.86,5.45,14.36,2.57,2.56,6.57,3.86,9.76,5.4l19.91,9.56,59.08,28.38L279.57,443c4.49,2.15,9,4.35,13.47,6.47,3.39,1.59,6.77,3,10.66,1.88a45.26,45.26,0,0,0,6.08-2.67l54-24.67,24.06-11c5-2.3,8.62-4.39,10.44-10.35,10.52-34.34,19.14-69.39,28.69-104L441,248.06c1.21-4.36,3-8.92,2-13.49-1.15-4.83-3-9.6-4.42-14.35l-19-61.69c-1.5-4.88-2.81-9.87-4.51-14.69-2.54-7.13-9.3-8.75-15.6-11.14L289,90.91l-9.41-3.56c-6.06-2.29-13.16,2.55-14.76,8.38C263,102.48,267.14,108.19,273.23,110.5Z"/><path d="M318.29,501.14l-79.06-32.38L113.36,417.19,84.65,405.43,93,413.81,66.37,336l-3.84-11.2c-2.1-6.13-8.24-10.17-14.76-8.38-6,1.64-10.49,8.6-8.38,14.76l24.73,72.17,4.94,14.41c1.73,5.06,4.14,8.7,9.48,10.91,5,2.06,10,4.09,14.95,6.13l75.9,31.09,91,37.3L294.18,517c5.6,2.3,11.19,5,16.93,6.94.27.09.54.22.8.33,6,2.45,13.19-2.67,14.76-8.39,1.89-6.88-2.35-12.29-8.38-14.76Z"/><path d="M398,514.36c19.38-13,39.19-25.54,58.21-39.07,4.49-3.2,5.54-7,6.91-11.75l4.72-16.42,13.59-47.33,9.08-31.6c4.27-14.87-18.88-21.22-23.14-6.38l-25.1,87.36-3.59,12.5,5.52-7.17L385.9,493.64c-5.37,3.61-7.72,10.58-4.3,16.42,3.12,5.33,11,7.93,16.42,4.3Z"/><path d="M502.81,218.27,478.4,108.67c-.95-4.24-1.59-8.7-2.87-12.85-2.39-7.83-11.06-9.25-17.86-11.42L395.3,64.46l-50.15-16c-6.17-2-13.09,2.31-14.76,8.38a12.2,12.2,0,0,0,8.38,14.76l106.86,34.16,15.14,4.84-8.38-8.38,23.83,107,3.45,15.45c1.41,6.33,8.73,10,14.76,8.38,6.51-1.79,9.79-8.41,8.38-14.76Z"/><path d="M208,31H122c-4,0-8.54,2.23-10.36,5.94L69.52,122.85,63.6,134.94c-2.85,5.82-1.58,13,4.3,16.42,5.29,3.09,13.56,1.54,16.42-4.3L126.4,61.15l5.92-12.09L122,55h86c15.44,0,15.47-24,0-24Z"/></g></g></svg>