<svg xmlns="http://www.w3.org/2000/svg" viewBox="0 0 1200 781"><defs><style>.cls-1{fill:#fff;}.cls-2{fill:#9b0000;}</style></defs><title>Recurso 4</title><g id="Capa_2" data-name="Capa 2"><g id="Capa_1-2" data-name="Capa 1"><rect width="1200" height="781"/><path class="cls-1" d="M140.64,89.06l53.22,83.72L278.3,305.63l19.34,30.43A12.1,12.1,0,0,0,320,330l3.72-91.32,5.93-145.44L331,60c.26-6.48-5.7-12-12-12a12.19,12.19,0,0,0-12,12l-3.72,91.32-5.93,145.44L296,330l22.36-6.06-53.22-83.72L180.7,107.37,161.36,76.94a12.25,12.25,0,0,0-16.42-4.3c-5.44,3.18-7.79,10.92-4.3,16.42Z"/><path class="cls-1" d="M545.51,74.51,521.09,99l-58.66,58.91-71,71.29L330,290.94c-10,10-20.48,19.69-30,30.12-.14.16-.3.31-.45.45-8.45,8.5.1,23.21,11.68,20.06l83.18-22.65,132.51-36.09,30.31-8.26c14.88-4.05,8.57-27.21-6.38-23.14l-83.18,22.65L335.12,310.17l-30.31,8.26,11.68,20.06L340.91,314l58.66-58.91,71-71.29L532,122.06c10-10,20.39-19.76,30-30.12.14-.16.3-.3.45-.45,10.91-11-6.06-27.94-17-17Z"/><path class="cls-1" d="M551.49,558.51l-79.76-80.43L345.5,350.77l-29-29.26c-8.88-8.95-22.32.37-20.06,11.68l18.33,91.67,29,144.93,6.68,33.4c1.27,6.36,8.83,10,14.76,8.38,6.63-1.82,9.66-8.38,8.38-14.76l-18.33-91.67-29-144.93-6.68-33.4-20.06,11.68,79.76,80.43L505.5,546.23l29,29.26c10.9,11,27.87-6,17-17Z"/><path class="cls-1" d="M57.06,512.36l86.81-58.1,138.39-92.62,31.8-21.28c8.61-5.76,7.27-18.74-2.87-21.93l-86.82-27.37L86,247.44l-31.78-10c-14.76-4.65-21.08,18.51-6.38,23.14l86.82,27.37L273,331.56l31.78,10-2.87-21.93-86.81,58.1L76.74,470.36l-31.8,21.28c-5.38,3.6-7.71,10.58-4.3,16.42,3.12,5.34,11,7.92,16.42,4.3Z"/><path class="cls-1" d="M372.55,260.84l30.51,46.5V295.23l-36,81.93L362,388.83l7.17-5.52-53.34,18.12h6.38l-73.36-29.82-10.64-4.33,8.38,8.39-28.34-71.76-4.08-10.33V300l26.32-74.7,3.74-10.63-11.57,8.81L313,218.5,307,216.86l69.89,48.28c5.33,3.69,13.32,1,16.42-4.3,3.48-6,1-12.73-4.31-16.42l-60.16-41.57c-3.11-2.15-6.16-4.56-9.41-6.5-3.66-2.17-6.82-1.82-10.68-1.58l-41.35,2.54-34.73,2.13a12.54,12.54,0,0,0-11.57,8.81l-16.69,47.37-10.29,29.21c-1.83,5.21-4.51,10.29-2.78,15.89,2.11,6.87,5.36,13.57,8,20.25l12.79,32.36,9.88,25c1,2.57,1.95,5.6,3.61,7.76,2.33,3,5.83,4.13,9.21,5.51l56.47,22.95,22.58,9.18c6,2.44,11.48-.26,17.22-2.21l31.74-10.78c6.3-2.14,16.7-4,20.08-10.25,2.92-5.39,5-11.43,7.48-17L404,352.32c6.57-15,13.23-29.9,19.71-44.9,2.44-5.64,1.43-10.06-1.66-14.77l-7.2-11-18-27.45-3.6-5.5c-3.55-5.41-10.62-7.69-16.42-4.3C371.48,247.57,369,255.39,372.55,260.84Z"/><path class="cls-1" d="M312.27,158.5l111.18,42.09,15.81,6-8.38-8.38,24.46,79.5L458.81,289v-6.38l-39.3,142.49-5.58,20.24,5.51-7.17-75.14,34.3-10.81,4.93H345.6l-52.52-25.23L209.33,411.9,190,402.64l5.51,7.17L165.3,293.59l-4.37-16.78v6.38L198,166.47l5.19-16.36-11.57,8.81H315.46c15.44,0,15.47-24,0-24H191.63a12.31,12.31,0,0,0-11.57,8.81l-31.45,99-7.77,24.48c-1.16,3.65-2.78,7.39-3.27,11.19-.59,4.64,1.56,9.94,2.71,14.38l6.48,24.89,16.9,64.89,6.39,24.57c1.2,4.6,1.95,10.86,5.45,14.36,2.57,2.56,6.57,3.86,9.76,5.4l19.91,9.56,59.08,28.38L318.61,491c4.49,2.15,9,4.35,13.47,6.47,3.39,1.59,6.77,3,10.66,1.88a45.26,45.26,0,0,0,6.08-2.67l54-24.67,24.06-11c5-2.3,8.62-4.39,10.44-10.35,10.52-34.34,19.14-69.39,28.69-104L480,296.06c1.21-4.36,3-8.92,2-13.49-1.15-4.83-3-9.6-4.42-14.35l-19-61.69c-1.5-4.88-2.81-9.87-4.52-14.69-2.53-7.13-9.29-8.75-15.59-11.14L328.06,138.91l-9.41-3.56c-6.06-2.29-13.16,2.55-14.76,8.38C302,150.48,306.18,156.19,312.27,158.5Z"/><path class="cls-1" d="M357.33,549.14l-79.06-32.38L152.4,465.19l-28.71-11.76,8.38,8.38L105.41,384l-3.84-11.2c-2.1-6.13-8.24-10.17-14.76-8.38-6,1.64-10.49,8.6-8.38,14.76l24.73,72.17,4.94,14.41c1.73,5.06,4.14,8.7,9.48,10.91,5,2.06,10,4.09,15,6.13l75.9,31.09,91,37.3L333.22,565c5.6,2.3,11.19,5,16.93,6.94.27.09.54.22.8.33,6,2.45,13.19-2.67,14.76-8.39,1.89-6.88-2.35-12.29-8.38-14.76Z"/><path class="cls-1" d="M437.06,562.36c19.38-13,39.19-25.54,58.21-39.07,4.49-3.2,5.54-7,6.91-11.75l4.72-16.42,13.59-47.33,9.08-31.6c4.27-14.87-18.88-21.22-23.14-6.38l-25.1,87.36-3.59,12.5,5.52-7.17-58.32,39.14c-5.37,3.61-7.72,10.58-4.3,16.42,3.12,5.33,11,7.93,16.42,4.3Z"/><path class="cls-1" d="M541.85,266.27l-24.41-109.6c-1-4.24-1.6-8.7-2.87-12.85-2.39-7.83-11.06-9.25-17.86-11.42l-62.37-19.94-50.15-16c-6.17-2-13.09,2.31-14.76,8.38a12.2,12.2,0,0,0,8.38,14.76l106.86,34.16,15.14,4.84-8.38-8.38,23.83,107,3.45,15.45c1.41,6.33,8.73,10,14.76,8.38,6.51-1.79,9.79-8.41,8.38-14.76Z"/><path class="cls-1" d="M247,79H161c-4,0-8.54,2.23-10.36,5.94l-42.08,85.91-5.92,12.09c-2.85,5.82-1.58,13,4.3,16.42,5.29,3.09,13.56,1.54,16.42-4.3l42.08-85.91,5.92-12.09L161,103h86c15.44,0,15.47-24,0-24Z"/><path class="cls-1" d="M714.06,217.7V421.41c0,15,.35,32,1.4,43.53H687.94l-1.39-29.25h-.7c-9.4,18.81-29.94,33.08-57.45,33.08-40.75,0-72.09-34.47-72.09-85.66-.35-56.07,34.48-90.54,75.57-90.54,25.77,0,43.18,12.18,50.84,25.76h.7V217.7ZM683.42,365a53.88,53.88,0,0,0-1.4-12.89c-4.52-19.5-21.24-35.52-44.22-35.52-31.69,0-50.5,27.86-50.5,65.12,0,34.13,16.72,62.34,49.8,62.34,20.55,0,39.35-13.58,44.92-36.57a52.93,52.93,0,0,0,1.4-13.23Z"/><path class="cls-1" d="M723.81,513.7c13.93-1.05,26.12-4.88,33.43-12.89,8.36-9.75,11.49-23,11.49-63.38v-141h30.65V449.27c0,32.74-5.23,54-20.2,69.3-13.58,13.58-35.87,19.15-52.23,19.15ZM802.86,249c.35,10.09-7,18.8-19.15,18.8-11.49,0-18.81-8.71-18.81-18.8,0-10.8,8-19.16,19.5-19.16C795.55,229.88,802.86,238.24,802.86,249Z"/><path class="cls-1" d="M942.85,464.94l-2.44-21.24h-1c-9.41,13.23-27.51,25.07-51.54,25.07-34.13,0-51.54-24-51.54-48.4,0-40.74,36.22-63,101.34-62.68V354.2c0-13.93-3.83-39-38.31-39-15.67,0-32,4.88-43.88,12.54l-7-20.2c13.93-9.05,34.13-15,55.37-15,51.54,0,64.07,35.17,64.07,68.95v63c0,14.62.7,28.9,2.79,40.39Zm-4.53-86c-33.43-.7-71.39,5.22-71.39,38,0,19.85,13.24,29.25,28.91,29.25,21.94,0,35.87-13.93,40.74-28.21a31.82,31.82,0,0,0,1.74-9.75Z"/><path class="cls-2" d="M492.38,736.35c0-12.89,8.7-21.94,20.89-21.94s20.55,9.05,20.55,21.94c0,12.54-8,21.94-20.9,21.94C500.74,758.29,492.38,748.89,492.38,736.35Z"/><path class="cls-2" d="M572.82,522.88C588.14,519.75,610.08,518,631,518c32.39,0,53.28,5.92,67.91,19.15,11.84,10.45,18.45,26.47,18.45,44.57,0,31-19.5,51.54-44.22,59.9v1c18.11,6.27,28.9,23,34.47,47.36,7.66,32.74,13.24,55.37,18.11,64.43H694.35c-3.83-6.62-9.05-26.82-15.67-56.07-7-32.38-19.5-44.57-47-45.62H603.11V754.46H572.82Zm30.29,106.91h31c32.38,0,52.93-17.76,52.93-44.57,0-30.3-21.94-43.53-54-43.88-14.63,0-25.07,1.39-29.95,2.78Z"/><path class="cls-2" d="M777.57,675.76c.7,41.44,27.17,58.5,57.81,58.5,21.94,0,35.17-3.83,46.67-8.71l5.22,21.94c-10.8,4.88-29.25,10.45-56.07,10.45-51.88,0-82.88-34.13-82.88-85s29.95-90.89,79-90.89c55,0,69.65,48.41,69.65,79.4a115.12,115.12,0,0,1-1,14.28Zm89.85-21.94c.35-19.5-8-49.8-42.49-49.8-31,0-44.57,28.56-47,49.8Z"/><path class="cls-2" d="M1080.54,507.21V710.93c0,15,.34,32,1.39,43.53h-27.51L1053,725.21h-.7c-9.4,18.8-29.95,33.08-57.46,33.08-40.74,0-72.08-34.48-72.08-85.67-.35-56.06,34.47-90.54,75.56-90.54,25.77,0,43.18,12.19,50.85,25.77h.69V507.21Zm-30.65,147.3a54.29,54.29,0,0,0-1.39-12.88c-4.53-19.5-21.24-35.52-44.23-35.52-31.69,0-50.49,27.86-50.49,65.12,0,34.13,16.71,62.33,49.8,62.33,20.54,0,39.35-13.58,44.92-36.56a53.47,53.47,0,0,0,1.39-13.23Z"/></g></g></svg>